<svg width="512" height="512" viewBox="0 0 512 512" fill="none" xmlns="http://www.w3.org/2000/svg">
<g clip-path="url(#clip0_9_46)">
<path d="M425.853 209.921C425.853 225.845 425.853 241.769 425.853 258.77C444.249 248.132 461.728 238.026 480 227.46C480 229.985 480 231.727 480 233.469C480 282.264 479.942 331.06 480.101 379.854C480.115 384.155 478.557 386.126 474.904 388.143C458.831 397.018 442.974 406.286 427.072 415.468C412.722 423.753 398.417 432.116 384.087 440.437C360.902 453.899 337.733 467.392 314.517 480.802C296.932 490.961 279.282 501.008 261.676 511.131C261.139 511.44 260.771 512.045 260.662 512.756C258.958 513 256.917 513 254.438 513C251.474 511.039 249.23 508.171 246.37 507.279C236.179 504.1 234.209 497.352 234.762 487.456C235.645 471.674 234.989 455.806 235.092 439.124C235.345 423.138 235.516 408.001 235.598 392.864C235.607 391.24 235.106 389.612 234.909 387.52C234.985 382.227 234.659 377.365 235.158 372.589C235.369 370.577 236.862 368.008 238.557 366.958C247.915 361.155 257.515 355.743 267.386 350.109C274.253 346.431 280.8 342.898 287.247 339.189C288.246 338.614 289.439 337.23 289.429 336.231C289.355 328.164 289.014 320.1 288.859 311.575C289.028 282.699 289.092 254.284 289.329 225.768C289.722 225.502 289.889 225.294 290.348 224.969C296.285 221.703 301.747 218.24 307.54 215.47C309.503 214.532 312.671 214.574 314.653 215.511C320.603 218.322 326.24 221.796 332.11 225.18C332.395 225.557 332.604 225.72 332.914 226.312C332.986 270.768 332.953 314.749 333.077 358.729C333.087 362.219 331.811 364.023 328.882 365.67C313.444 374.35 298.089 383.182 282.8 392.124C281.214 393.052 279.188 395.034 279.166 396.554C278.911 414.145 279.003 431.741 279.003 450.042C287.557 445.091 295.516 440.446 303.512 435.864C324.525 423.821 345.578 411.849 366.569 399.767C388.123 387.36 409.586 374.795 431.186 362.47C434.025 360.85 435.089 359.069 435.061 355.861C434.925 340.202 435.004 324.542 434.991 308.882C434.989 307.647 434.86 306.412 434.745 304.399C416.589 314.911 399.113 325.03 381 335.518C381 330.857 380.992 327.062 381.001 323.267C381.072 293.619 381.147 263.971 381.38 234.299C381.539 234.275 381.841 234.168 382.212 234.131C396.686 226.014 410.788 217.936 425.131 209.877C425.371 209.897 425.853 209.921 425.853 209.921Z" fill="#7444FF"/>
<path d="M260.562 1C264.196 3.40002 267.191 6.14342 270.619 8.14585C298.524 24.4455 326.484 40.6513 354.48 56.7952C375.439 68.8817 396.481 80.8251 417.476 92.849C437.341 104.225 457.225 115.569 476.986 127.123C478.464 127.987 479.764 130.39 479.864 132.15C480.214 138.288 480.244 144.473 479.853 150.606C479.734 152.473 478.312 154.981 476.73 155.92C459.977 165.858 443.071 175.539 425.809 185.604C425.411 185.917 425.008 185.992 424.646 185.998C414 191.781 403.681 197.496 393.448 203.364C389.44 205.663 385.627 208.303 381.511 210.832C381.297 210.876 380.9 211.056 380.573 211.16C376.225 213.633 372.128 215.884 368.213 218.415C365.86 219.935 363.987 219.685 361.645 218.32C352.179 212.805 342.601 207.483 332.864 201.807C326.259 197.727 319.895 193.855 313.409 190.202C312.311 189.585 310.349 189.326 309.353 189.894C302.472 193.821 295.74 198.011 288.621 202.181C287.662 202.783 287.111 203.439 286.413 203.841C270.7 212.895 255.017 222.002 239.227 230.923C230.662 235.762 221.911 240.275 213.056 244.64C207.176 240.982 201.551 237.499 195.764 234.309C193.121 232.851 192.002 231.08 192.079 228.017C192.253 221.072 192.094 214.117 192.386 207.005C211.656 195.834 230.604 184.815 249.566 173.82C267.142 163.63 284.646 153.309 302.386 143.413C306.354 141.2 310.332 136.38 315.97 140.925C318.6 143.045 321.765 144.511 324.725 146.208C337.272 153.406 349.788 160.661 362.454 167.644C363.86 168.419 366.44 168.168 367.98 167.4C373.935 164.429 379.729 161.125 385.511 157.818C394.663 152.583 403.756 147.244 413.367 141.664C405.364 137.171 397.863 133.073 390.47 128.788C365.585 114.365 340.773 99.8168 315.866 85.4324C297.436 74.7884 278.817 64.468 260.506 53.6249C257.792 52.0178 256.178 52.2306 253.949 53.5204C249.592 56.0412 245.203 58.5064 240.848 61.0302C230.343 67.1176 219.85 73.2255 209.031 79.5119C226.961 89.8274 244.523 99.9311 262.714 110.396C259.59 112.237 257.232 113.643 254.859 115.022C242.634 122.122 230.436 129.268 218.171 136.298C203.807 144.532 189.384 152.663 174.807 160.561C172.406 158.863 170.223 157.376 167.955 156.034C156.149 149.049 144.32 142.1 132.499 135.139C146.301 126.975 160.102 118.811 174.297 110.413C156.404 100.045 138.861 89.8784 120.601 79.2971C129.633 74.0434 138.238 69.0202 146.86 64.0267C163.159 54.5873 179.458 45.1477 195.776 35.7408C209.562 27.7933 223.392 19.9228 237.167 11.9557C243.051 8.55238 248.843 4.99002 254.338 1.24996C256.042 1.00001 258.083 1 260.562 1Z" fill="#7444FF"/>
<path d="M213.904 426.053C202.062 419.329 190.227 412.594 178.372 405.892C176.135 404.627 173.821 403.498 171.034 402.04C171.034 422.865 171.034 443.077 171.034 463.934C152.707 453.291 134.916 442.938 117.103 432.623C101.208 423.418 85.2922 414.248 69.3797 405.074C58.5444 398.826 47.6799 392.629 36.8932 386.299C36.0081 385.78 35.4194 384.479 35.0642 383.417C34.7635 382.518 35 381.439 35 380.44C34.9999 298.155 35.018 215.871 34.9355 133.587C34.9321 130.191 35.3598 128.031 38.9175 126.354C44.3283 123.805 49.2016 120.136 54.4917 117.294C55.6636 116.664 57.8917 117.015 59.1761 117.733C71.6582 124.708 84.0411 131.86 96.4564 138.955C101.112 141.615 105.778 144.256 110.943 147.314C123.812 155.033 136.157 162.381 148.566 169.618C150.53 170.763 152.784 171.41 155.096 172.564C158.956 174.911 162.538 177.157 166.318 178.997C169.628 180.607 171.188 182.635 171.105 186.603C170.88 197.409 171.163 208.225 171.165 219.495C171.04 227.106 170.941 234.261 170.998 241.414C171.008 242.631 171.31 244.499 172.11 244.954C179.277 249.027 186.585 252.85 193.967 257.104C219.052 271.924 244.023 286.385 268.707 301.169C268.301 307.293 267.778 313.124 268.184 318.89C268.538 323.916 266.793 326.707 262.355 329.017C257.006 331.801 252.145 335.524 246.722 338.797C240.196 335.16 234.035 331.543 227.844 327.979C213.471 319.704 199.071 311.475 184.704 303.189C166.682 292.794 148.721 282.292 130.629 272.021C127.991 270.523 126.899 269.024 126.926 265.933C127.078 248.271 126.82 230.603 127.125 212.945C127.203 208.476 125.543 206.287 121.86 204.294C112.998 199.498 104.376 194.261 95.6205 189.265C90.2681 186.211 84.8484 183.275 79 180.031C79 201.487 79 221.981 79 242.476C79 279.803 79.0859 317.131 78.8819 354.457C78.8587 358.705 80.3315 361.076 83.7832 362.99C93.8784 368.587 103.907 374.303 113.947 380C118.118 382.366 122.249 384.802 127.278 387.715C127.278 366.469 127.278 346.307 127.278 325.799C140.7 333.444 153.571 340.685 166.354 348.079C182.384 357.349 198.342 366.743 214.266 376.543C214.102 393.353 214.003 409.703 213.904 426.053Z" fill="#7444FF"/>
<path d="M214.057 426.369C214.003 409.703 214.102 393.353 214.6 376.527C221.612 380.03 228.227 384.008 234.841 387.986C235.106 389.612 235.607 391.24 235.598 392.864C235.516 408.001 235.345 423.138 235.045 438.66C227.996 434.926 221.104 430.806 214.057 426.369Z" fill="#E167FF"/>
<path d="M154.904 172.287C152.784 171.41 150.53 170.763 148.566 169.618C136.157 162.381 123.812 155.033 111.288 147.441C118.041 143.119 124.953 139.078 132.182 135.088C144.32 142.1 156.149 149.049 167.955 156.034C170.223 157.376 172.406 158.863 174.505 160.738C167.89 164.891 161.397 168.589 154.904 172.287Z" fill="#E167FF"/>
<path d="M425.008 185.992C425.008 185.992 425.411 185.917 425.616 185.9C425.88 193.593 425.939 201.303 425.926 209.467C425.853 209.921 425.371 209.897 425.142 209.419C424.945 201.291 424.977 193.641 425.008 185.992Z" fill="#725BB6"/>
<path d="M268.707 301.169C275.394 304.449 281.794 308.051 288.474 311.844C289.014 320.1 289.355 328.164 289.429 336.231C289.439 337.23 288.246 338.614 287.247 339.189C280.8 342.898 274.253 346.431 267.386 350.109C260.577 346.53 254.121 342.863 247.369 339.019C252.145 335.524 257.006 331.801 262.355 329.017C266.793 326.707 268.538 323.916 268.184 318.89C267.778 313.124 268.301 307.293 268.707 301.169Z" fill="#E167FF"/>
<path d="M424.647 185.998C424.977 193.641 424.945 201.291 424.902 209.399C410.788 217.936 396.686 226.014 382.252 233.647C381.856 225.731 381.79 218.259 381.725 210.787C385.627 208.303 389.44 205.663 393.449 203.364C403.681 197.496 414 191.781 424.647 185.998Z" fill="#E167FF"/>
<path d="M289.143 202.96C289.143 202.96 289.006 202.548 288.983 202.332C295.74 198.011 302.472 193.821 309.353 189.894C310.349 189.326 312.311 189.585 313.409 190.202C319.895 193.855 326.259 197.727 332.864 201.807C333.064 202.089 332.997 202.551 332.739 203.142C332.321 210.826 332.16 217.919 331.999 225.012C326.24 221.796 320.603 218.322 314.653 215.511C312.671 214.574 309.503 214.532 307.54 215.47C301.746 218.24 296.284 221.703 290.345 224.498C289.713 217.054 289.428 210.007 289.143 202.96Z" fill="#E167FF"/>
<path d="M289.088 203.431C289.428 210.007 289.713 217.054 290.001 224.572C289.889 225.294 289.722 225.502 289.329 225.768C289.115 218.546 289.074 211.225 289.088 203.431Z" fill="#726696"/>
<path d="M332.11 225.18C332.16 217.919 332.321 210.826 332.667 203.364C332.895 210.311 332.938 217.628 332.915 225.391C332.604 225.72 332.395 225.557 332.11 225.18Z" fill="#726696"/>
<path d="M381.511 210.832C381.79 218.259 381.856 225.731 381.881 233.685C381.841 234.168 381.539 234.275 381.38 234.299C381.142 226.876 381.063 219.429 380.942 211.519C380.9 211.056 381.298 210.876 381.511 210.832Z" fill="#725BB6"/>
<path d="M171.165 219.495C177.953 215.1 184.661 211.164 191.721 207.197C192.094 214.117 192.253 221.072 192.079 228.017C192.002 231.08 193.121 232.851 195.764 234.309C201.551 237.499 207.176 240.982 213.056 244.64C206.944 248.715 200.644 252.495 194.098 256.511C186.585 252.85 179.277 249.027 172.11 244.954C171.31 244.499 171.008 242.631 170.998 241.414C170.941 234.261 171.04 227.106 171.165 219.495Z" fill="#E167FF"/>
</g>
<defs>
<clipPath id="clip0_9_46">
<rect width="512" height="512" fill="white"/>
</clipPath>
</defs>
</svg>
